<svg width="1454" height="195" viewBox="0 0 1454 195" fill="none" xmlns="http://www.w3.org/2000/svg">
<path d="M1301.44 167.042H1269.37L1318.23 25.5083H1356.79L1405.58 167.042H1373.52L1338.06 57.8509H1336.96L1301.44 167.042ZM1299.43 111.41H1375.18V134.768H1299.43V111.41Z" fill="url(#paint0_linear_2965_3381)"/>
<path d="M1453.76 25.5083V167.042H1423.83V25.5083H1453.76Z" fill="url(#paint1_linear_2965_3381)"/>
<path d="M406.016 167.042H355.844V25.5083H406.431C420.667 25.5083 432.922 28.3417 443.196 34.0086C453.47 39.6294 461.372 47.715 466.9 58.2655C472.475 68.8161 475.263 81.4398 475.263 96.1368C475.263 110.88 472.475 123.55 466.9 134.146C461.372 144.743 453.424 152.875 443.058 158.541C432.738 164.208 420.391 167.042 406.016 167.042ZM385.768 141.403H404.772C413.618 141.403 421.059 139.836 427.094 136.703C433.176 133.524 437.737 128.618 440.778 121.983C443.864 115.303 445.408 106.687 445.408 96.1368C445.408 85.6784 443.864 77.1321 440.778 70.4977C437.737 63.8633 433.199 58.9797 427.163 55.8468C421.128 52.7139 413.687 51.1474 404.841 51.1474H385.768V141.403Z" fill="#FFFFFF"/>
<path d="M546.468 169.115C535.549 169.115 526.15 166.903 518.272 162.481C510.44 158.012 504.404 151.7 500.166 143.545C495.927 135.344 493.808 125.646 493.808 114.45C493.808 103.531 495.927 93.9484 500.166 85.7015C504.404 77.4546 510.371 71.0275 518.065 66.4203C525.805 61.8131 534.881 59.5095 545.293 59.5095C552.296 59.5095 558.815 60.6383 564.851 62.8958C570.932 65.1073 576.231 68.4475 580.746 72.9165C585.307 77.3855 588.854 83.0063 591.388 89.7788C593.922 96.5054 595.189 104.384 595.189 113.414V121.499H505.556V103.255H567.477C567.477 99.0163 566.556 95.2614 564.713 91.9903C562.87 88.7192 560.313 86.1622 557.042 84.3193C553.817 82.4304 550.062 81.4859 545.777 81.4859C541.308 81.4859 537.346 82.5225 533.89 84.5957C530.481 86.6229 527.809 89.3642 525.874 92.8196C523.939 96.2289 522.948 100.03 522.902 104.222V121.569C522.902 126.821 523.87 131.359 525.805 135.183C527.786 139.007 530.573 141.955 534.167 144.029C537.761 146.102 542.022 147.139 546.952 147.139C550.223 147.139 553.218 146.678 555.936 145.756C558.654 144.835 560.981 143.453 562.916 141.61C564.851 139.767 566.325 137.51 567.339 134.837L594.567 136.634C593.185 143.176 590.352 148.889 586.067 153.773C581.828 158.611 576.346 162.388 569.619 165.107C562.939 167.779 555.222 169.115 546.468 169.115Z" fill="#FFFFFF"/>
<path d="M711.73 60.8917L674.619 167.042H641.447L604.336 60.8917H635.434L657.48 136.841H658.586L680.562 60.8917H711.73Z" fill="#FFFFFF"/>
<path d="M778.737 167.042H728.564V25.5083H779.152C793.388 25.5083 805.643 28.3417 815.917 34.0086C826.191 39.6294 834.093 47.715 839.621 58.2655C845.196 68.8161 847.983 81.4398 847.983 96.1368C847.983 110.88 845.196 123.55 839.621 134.146C834.093 144.743 826.145 152.875 815.779 158.541C805.459 164.208 793.111 167.042 778.737 167.042ZM758.488 141.403H777.493C786.339 141.403 793.779 139.836 799.815 136.703C805.896 133.524 810.458 128.618 813.498 121.983C816.585 115.303 818.129 106.687 818.129 96.1368C818.129 85.6784 816.585 77.1321 813.498 70.4977C810.458 63.8633 805.919 58.9797 799.884 55.8468C793.849 52.7139 786.408 51.1474 777.562 51.1474H758.488V141.403Z" fill="url(#paint2_linear_2965_3381)"/>
<path d="M918.774 169.115C908.039 169.115 898.756 166.834 890.924 162.273C883.137 157.666 877.125 151.262 872.886 143.061C868.648 134.814 866.528 125.254 866.528 114.381C866.528 103.416 868.648 93.8332 872.886 85.6324C877.125 77.3855 883.137 70.9814 890.924 66.4203C898.756 61.8131 908.039 59.5095 918.774 59.5095C929.509 59.5095 938.769 61.8131 946.556 66.4203C954.388 70.9814 960.423 77.3855 964.662 85.6324C968.901 93.8332 971.02 103.416 971.02 114.381C971.02 125.254 968.901 134.814 964.662 143.061C960.423 151.262 954.388 157.666 946.556 162.273C938.769 166.834 929.509 169.115 918.774 169.115ZM918.912 146.309C923.796 146.309 927.873 144.927 931.145 142.163C934.416 139.352 936.88 135.528 938.539 130.691C940.244 125.853 941.096 120.348 941.096 114.174C941.096 108 940.244 102.495 938.539 97.6572C936.88 92.8196 934.416 88.9956 931.145 86.1852C927.873 83.3748 923.796 81.9696 918.912 81.9696C913.983 81.9696 909.836 83.3748 906.473 86.1852C903.156 88.9956 900.645 92.8196 898.94 97.6572C897.281 102.495 896.452 108 896.452 114.174C896.452 120.348 897.281 125.853 898.94 130.691C900.645 135.528 903.156 139.352 906.473 142.163C909.836 144.927 913.983 146.309 918.912 146.309Z" fill="url(#paint3_linear_2965_3381)"/>
<path d="M1039.34 169.115C1028.47 169.115 1019.11 166.811 1011.28 162.204C1003.5 157.551 997.507 151.101 993.314 142.854C989.168 134.607 987.094 125.116 987.094 114.381C987.094 103.508 989.191 93.9714 993.383 85.7706C997.622 77.5237 1003.63 71.0966 1011.42 66.4894C1019.21 61.8361 1028.47 59.5095 1039.2 59.5095C1048.46 59.5095 1056.57 61.1911 1063.53 64.5544C1070.48 67.9176 1075.99 72.64 1080.04 78.7215C1084.1 84.8031 1086.33 91.9442 1086.75 100.145H1058.97C1058.18 94.8468 1056.11 90.5851 1052.75 87.3601C1049.43 84.0889 1045.08 82.4534 1039.69 82.4534C1035.12 82.4534 1031.14 83.6973 1027.73 86.1852C1024.37 88.627 1021.74 92.1976 1019.85 96.897C1017.96 101.596 1017.02 107.286 1017.02 113.967C1017.02 120.739 1017.94 126.498 1019.78 131.244C1021.67 135.989 1024.32 139.606 1027.73 142.094C1031.14 144.582 1035.12 145.826 1039.69 145.826C1043.05 145.826 1046.07 145.134 1048.74 143.752C1051.46 142.37 1053.69 140.366 1055.44 137.74C1057.24 135.068 1058.41 131.866 1058.97 128.134H1086.75C1086.29 136.243 1084.08 143.384 1080.11 149.557C1076.2 155.685 1070.78 160.476 1063.87 163.932C1056.96 167.387 1048.78 169.115 1039.34 169.115Z" fill="url(#paint4_linear_2965_3381)"/>
<path d="M1195.13 91.161L1168.18 92.8196C1167.72 90.516 1166.73 88.4428 1165.21 86.5999C1163.69 84.7109 1161.69 83.2136 1159.2 82.1078C1156.76 80.956 1153.83 80.3801 1150.42 80.3801C1145.86 80.3801 1142.01 81.3477 1138.88 83.2827C1135.75 85.1716 1134.18 87.7056 1134.18 90.8846C1134.18 93.4185 1135.19 95.5609 1137.22 97.3116C1139.25 99.0624 1142.73 100.468 1147.66 101.527L1166.87 105.397C1177.19 107.517 1184.88 110.926 1189.95 115.625C1195.02 120.325 1197.55 126.498 1197.55 134.146C1197.55 141.103 1195.5 147.208 1191.4 152.46C1187.35 157.712 1181.77 161.813 1174.68 164.761C1167.63 167.664 1159.5 169.115 1150.28 169.115C1136.23 169.115 1125.04 166.189 1116.7 160.338C1108.4 154.441 1103.54 146.424 1102.11 136.289L1131.07 134.768C1131.95 139.053 1134.07 142.324 1137.43 144.582C1140.79 146.793 1145.1 147.899 1150.35 147.899C1155.51 147.899 1159.66 146.908 1162.79 144.927C1165.97 142.9 1167.58 140.297 1167.63 137.118C1167.58 134.446 1166.45 132.257 1164.24 130.553C1162.03 128.802 1158.62 127.466 1154.01 126.544L1135.63 122.882C1125.27 120.808 1117.55 117.215 1112.48 112.101C1107.46 106.987 1104.95 100.468 1104.95 92.5432C1104.95 85.7245 1106.79 79.8503 1110.48 74.9206C1114.21 69.9909 1119.44 66.1899 1126.16 63.5178C1132.94 60.8456 1140.86 59.5095 1149.94 59.5095C1163.34 59.5095 1173.89 62.3429 1181.59 68.0098C1189.33 73.6767 1193.84 81.3937 1195.13 91.161Z" fill="url(#paint5_linear_2965_3381)"/>
<path d="M1234.52 168.839C1229.95 168.839 1226.04 167.226 1222.77 164.001C1219.54 160.73 1217.93 156.814 1217.93 152.253C1217.93 147.738 1219.54 143.867 1222.77 140.642C1226.04 137.417 1229.95 135.805 1234.52 135.805C1238.94 135.805 1242.81 137.417 1246.13 140.642C1249.44 143.867 1251.1 147.738 1251.1 152.253C1251.1 155.293 1250.32 158.081 1248.75 160.615C1247.23 163.103 1245.23 165.107 1242.74 166.627C1240.25 168.101 1237.51 168.839 1234.52 168.839Z" fill="url(#paint6_linear_2965_3381)"/>
<path fill-rule="evenodd" clip-rule="evenodd" d="M64.7884 94.8244C45.6513 94.8244 30.1377 110.338 30.1377 129.475C30.1377 148.612 45.6514 164.126 64.7884 164.126H230.166C238.488 164.126 245.235 170.872 245.235 179.195C245.235 187.517 238.488 194.263 230.166 194.263H64.7884C29.0068 194.263 0 165.257 0 129.475C0 93.6934 29.0067 64.6866 64.7884 64.6866H86.1137V94.8244H64.7884Z" fill="url(#paint7_linear_2965_3381)"/>
<path fill-rule="evenodd" clip-rule="evenodd" d="M235.438 94.8244C254.575 94.8244 270.088 110.338 270.088 129.475C270.088 148.612 254.575 164.126 235.438 164.126H165.1C156.778 164.126 150.031 170.872 150.031 179.195C150.031 187.517 156.778 194.263 165.1 194.263H235.438C271.219 194.263 300.226 165.257 300.226 129.475C300.226 93.6934 271.219 64.6866 235.438 64.6866H214.112V94.8244H235.438Z" fill="url(#paint8_linear_2965_3381)"/>
<path fill-rule="evenodd" clip-rule="evenodd" d="M84.2644 94.8243C75.9421 94.8243 69.1956 88.0778 69.1956 79.7555C69.1956 35.9065 104.742 0.35988 148.591 0.359878L150.988 0.359878C194.837 0.359876 230.384 35.9065 230.384 79.7555C230.384 88.0778 223.637 94.8243 215.315 94.8243C206.992 94.8243 200.246 88.0778 200.246 79.7555C200.246 52.5511 178.192 30.4976 150.988 30.4976L148.591 30.4976C121.387 30.4976 99.3333 52.5511 99.3333 79.7555C99.3333 88.0778 92.5867 94.8243 84.2644 94.8243Z" fill="url(#paint9_linear_2965_3381)"/>
<defs>
<linearGradient id="paint0_linear_2965_3381" x1="1307.73" y1="150.696" x2="1408.5" y2="48.7449" gradientUnits="userSpaceOnUse">
<stop stop-color="#F9AB6D"/>
<stop offset="0.462942" stop-color="#D15EED"/>
<stop offset="0.892992" stop-color="#484DFF"/>
</linearGradient>
<linearGradient id="paint1_linear_2965_3381" x1="1307.73" y1="150.696" x2="1408.5" y2="48.7449" gradientUnits="userSpaceOnUse">
<stop stop-color="#F9AB6D"/>
<stop offset="0.462942" stop-color="#D15EED"/>
<stop offset="0.892992" stop-color="#484DFF"/>
</linearGradient>
<linearGradient id="paint2_linear_2965_3381" x1="1033.98" y1="54.7224" x2="972.995" y2="298.626" gradientUnits="userSpaceOnUse">
<stop offset="0.107644" stop-color="#07EEFD"/>
<stop offset="0.395833" stop-color="#0058DC"/>
<stop offset="1" stop-color="#0058DC"/>
</linearGradient>
<linearGradient id="paint3_linear_2965_3381" x1="1033.98" y1="54.7224" x2="972.995" y2="298.626" gradientUnits="userSpaceOnUse">
<stop offset="0.107644" stop-color="#07EEFD"/>
<stop offset="0.395833" stop-color="#0058DC"/>
<stop offset="1" stop-color="#0058DC"/>
</linearGradient>
<linearGradient id="paint4_linear_2965_3381" x1="1033.98" y1="54.7224" x2="972.995" y2="298.626" gradientUnits="userSpaceOnUse">
<stop offset="0.107644" stop-color="#07EEFD"/>
<stop offset="0.395833" stop-color="#0058DC"/>
<stop offset="1" stop-color="#0058DC"/>
</linearGradient>
<linearGradient id="paint5_linear_2965_3381" x1="1033.98" y1="54.7224" x2="972.995" y2="298.626" gradientUnits="userSpaceOnUse">
<stop offset="0.107644" stop-color="#07EEFD"/>
<stop offset="0.395833" stop-color="#0058DC"/>
<stop offset="1" stop-color="#0058DC"/>
</linearGradient>
<linearGradient id="paint6_linear_2965_3381" x1="1033.98" y1="54.7224" x2="972.995" y2="298.626" gradientUnits="userSpaceOnUse">
<stop offset="0.107644" stop-color="#07EEFD"/>
<stop offset="0.395833" stop-color="#0058DC"/>
<stop offset="1" stop-color="#0058DC"/>
</linearGradient>
<linearGradient id="paint7_linear_2965_3381" x1="140.789" y1="99.9845" x2="76.6605" y2="252.46" gradientUnits="userSpaceOnUse">
<stop offset="0.107644" stop-color="#07EEFD"/>
<stop offset="0.501639" stop-color="#0058DC"/>
<stop offset="1" stop-color="#0058DC"/>
</linearGradient>
<linearGradient id="paint8_linear_2965_3381" x1="268.981" y1="179.299" x2="177.229" y2="96.7046" gradientUnits="userSpaceOnUse">
<stop stop-color="#F9AB6D"/>
<stop offset="0.462942" stop-color="#D15EED"/>
<stop offset="0.892992" stop-color="#484DFF"/>
</linearGradient>
<linearGradient id="paint9_linear_2965_3381" x1="211.768" y1="75.1725" x2="172.38" y2="-11.3698" gradientUnits="userSpaceOnUse">
<stop stop-color="#F9AB6D"/>
<stop offset="0.462942" stop-color="#D15EED"/>
<stop offset="0.892992" stop-color="#484DFF"/>
</linearGradient>
</defs>
</svg>
